<?xml version="1.0" standalone="no"?>
<svg viewBox="0 0 200 200" xmlns="http://www.w3.org/2000/svg">
  <path fill="#F1C21B" d="M30.3,-55.2C39.7,-47.2,47.8,-39.7,52.4,-30.6C57,-21.5,58,-10.8,56.9,-0.6C55.9,9.5,52.7,19.1,49.5,30.5C46.2,41.9,42.9,55.2,34.6,61.4C26.4,67.6,13.2,66.7,3.2,61.2C-6.9,55.7,-13.7,45.7,-26.7,42.2C-39.6,38.7,-58.7,41.8,-71.9,35.9C-85,29.9,-92.2,15,-88,2.5C-83.7,-10,-67.8,-20,-56.5,-29.2C-45.2,-38.3,-38.4,-46.6,-29.8,-54.9C-21.1,-63.3,-10.5,-71.8,0,-71.7C10.5,-71.7,21,-63.1,30.3,-55.2Z" transform="translate(100 100)" />
</svg>
